<svg width="1090" height="275" viewBox="0 0 1090 275" fill="none" xmlns="http://www.w3.org/2000/svg">
<path d="M237 0H134.5L111 44.5H164.5L126 175.5L76 190.5L97.5 119.5L38.5 138L0 275L176 209L237 0Z" fill="white"/>
<path fill-rule="evenodd" clip-rule="evenodd" d="M381 0H299.5L176 241L242.5 234L257.5 196L317 185V234L374 228L381 0ZM323 140.5V62L279 149.5L323 140.5Z" fill="white"/>
<path d="M509 0H445.5L386.5 228L445.5 220.5L469 138L520 131L494.5 228L555 220.5L611 0H555L532.5 84L482.5 91L509 0Z" fill="white"/>
<path d="M690.5 0H631.5L579.5 202.5L602 228L695.5 220.5L734.5 190.5L785.5 0H729.5L684.5 169.5L641.5 175.5L690.5 0Z" fill="white"/>
<path d="M835.5 0L796 29L750 200.5L768.5 228L842 220.5L835.5 249.5L895.5 208.5L926.5 89H853.5L842 132H864.5L853.5 175.5H813.5L846.5 48.5H921.5L948.5 0H835.5Z" fill="white"/>
<path fill-rule="evenodd" clip-rule="evenodd" d="M1090 0H1007.5L892 240L953.5 233.5L970.5 195.5L1028.5 184V228L1088.5 225L1090 0ZM1033.5 62L990.5 149L1033.5 140.5V62Z" fill="white"/>
</svg>
